<?xml version="1.0" encoding="utf-8"?>
<!-- Generator: Adobe Illustrator 17.1.0, SVG Export Plug-In . SVG Version: 6.00 Build 0)  -->
<!DOCTYPE svg PUBLIC "-//W3C//DTD SVG 1.1//EN" "http://www.w3.org/Graphics/SVG/1.1/DTD/svg11.dtd">
<svg version="1.1" id="Layer_1" xmlns="http://www.w3.org/2000/svg" xmlns:xlink="http://www.w3.org/1999/xlink" x="0px" y="0px"
	 viewBox="0 0 612 792" enable-background="new 0 0 612 792" xml:space="preserve">
<g id="Слой_1" display="none">
	<path display="inline" fill="#6ABD46" stroke="#11090F" stroke-width="0.5" stroke-miterlimit="10" d="M67.6,454.6c0-1.5,0-3,0-4.5
		c7.5-6,15-12.8,21-18c0-7.5,0-13.5,0-18c-4.5-6-9-11.3-12.8-15.8c3,0,5.3,0,9,0c-0.8-12,0-21.8-3.8-32.3c-4.5-10.5,3-21.8,6-36.8
		c2.3-2.3,7.5-7.5,12.8-12.8c-1.5-6.8-9.8-12-5.3-23.3c4.5,6.8,9,12.8,12.8,17.3c6,0,10.5,0,15.8,0c3.8-7.5,6.8-14.3,9.8-21
		c1.5,0,2.3,0.8,3.8,0.8c0,6.8,0,13.5,0,20.3c39,9.8,41.3,39,39,69.1c10.5,5.3,11.3-12,21.8-5.3c-1.5,10.5-12.8,14.3-17.3,21.8
		c-4.5,15.8,12,14.3,17.3,22.5c-0.8,3-0.8,6.8-1.5,9.8c-5.3-3-9.8-6-15.8-9.8c3,27,6,51.1,9,74.3c16.5,10.5,30,12.8,55.6,7.5
		c-1.5-5.3-3.8-10.5-4.5-15.8c-0.8-15,0.8-30.8-4.5-45.8c-3.8-11.3,0.8-23.3-3.8-35.3c-4.5-11.3-1.5-24.8-4.5-36.8
		c-4.5-21-3.8-43.6-5.3-65.3c0-4.5,0-9.8,0-16.5c-8.3,1.5-15,3-21.8,4.5c-0.8-1.5-1.5-2.3-1.5-3.8c6.8-6,13.5-12,21-18
		c-9-6.8-16.5-12.8-24-18c0.8-4.5,0.8-8.3,1.5-15.8c8.3,9,14.3,15,21,21c0-14.3,0.8-28.5,0-42.8c-1.5-14.3,10.5-28.5,2.3-44.3
		c-9.8,1.5-20.3,3-31.5,4.5c0-1.5-0.8-3.8-0.8-7.5c10.5,0,19.5,0,28.5,0c-0.8-0.8-1.5-2.3-2.3-3c3.8-1.5,6.8-3,9.8-3.8
		c-6.8-15-15-26.3-9.8-42.1c5.3,12,9.8,23.3,15.8,36.8c12.8-20.3,29.3-33.8,53.3-36.8c-3.8-12-14.3-21-12-34.5c1.5,0,3,0,4.5,0
		c5.3,10.5,10.5,21,15.8,31.5c12.8-6,6-21.8,19.5-27c-0.8,6.8-1.5,12-2.3,17.3c-0.8,4.5-1.5,8.3-3,14.3c20.3-3.8,33,6.8,45.1,15
		c3.8-8.3,8.3-17.3,12-25.5c3,13.5-2.3,25.5-5.3,36.8c5.3,7.5,9.8,14.3,15.8,21.8c4.5-2.3,8.3-4.5,12.8-6c4.5-0.8,9.8,0,15,0
		c-0.8,3.8-0.8,6-0.8,8.3c-6.8,0-12.8,0-18,0c-3,3-5.3,4.5-8.3,7.5c1.5,6.8,5.3,14.3,5.3,21.8s3,13.5,4.5,20.3c1.5,7.5,0,15.8,0,24
		c0,7.5,0.8,15,0.8,23.3c3.8,0,6,0,8.3,0c-0.8,3,0,6.8-1.5,7.5c-7.5,6.8-9,13.5-5.3,22.5c4.5,3,9,5.3,13.5,9
		c1.5,1.5,0.8,5.3,0.8,9.8c-7.5-4.5-12.8-7.5-18.8-11.3c-4.5,14.3,0.8,26.3-5.3,39c-4.5,9.8,0.8,23.3-2.3,36c6-3.8,10.5-7.5,15-12
		c0.8-0.8,2.3-0.8,3.8-0.8c0,3.8,0,7.5,0,10.5c-9.8,10.5-21.8,18-21,36c7.5,3.8,15,8.3,21.8,12c-0.8,2.3-0.8,3.8-1.5,6
		c-6-1.5-12-3-18.8-4.5c-2.3,12-5.3,22.5-6,33.8c-0.8,11.3,0,23.3-0.8,34.5c-0.8,11.3-3.8,21.8-3.8,33c-0.8,11.3-0.8,22.5,0.8,33.8
		c14.3,0,27.8,0,42.1,0c10.5-18.8,10.5-39,9-60.8c-6,3-10.5,5.3-16.5,9c0-9.8,7.5-12.8,10.5-16.5c5.3-1.5,8.3-2.3,13.5-3.8
		c-6.8-11.3-17.3-12-24.8-18c0.8-2.3,1.5-3.8,3-6.8c6,3,12,6,19.5,9.8c-0.8-12.8,3.8-24,3.8-35.3c-0.8-50.3,8.3-99.9,5.3-150.2
		c-0.8-7.5-0.8-14.3,0-21.8c2.3-15,6-30.8,18.8-39.8c8.3-5.3,18-8.3,28.5-12c3.8-9-11.3-18-1.5-27.8c1.5,0,3,0,6,0.8
		c-0.8,9.8-0.8,20.3,6,29.3c8.3,1.5,15,0.8,21-6.8c1.5-1.5,5.3-1.5,7.5-1.5c1.5,9.8-6,12-12.8,15c3,3,5.3,6,8.3,8.3
		c10.5,9,14.3,19.5,13.5,33.8c-0.8,12.8,0,26.3,0,39c0,1.5,0.8,2.3,1.5,3.8c5.3-0.8,6.8-12,15.8-6c1.5,15.8-24.8,12-21,30.8
		c3.8,3.8,8.3,8.3,10.5,10.5c-1.5,4.5-3,6.8-3.8,9c-3-2.3-4.5-3-6-4.5c-2.3,5.3-6,9.8-5.3,13.5c1.5,20.3-2.3,39-4.5,58.6
		c0,1.5,0.8,3.8,3,8.3c6-6,9.8-9.8,14.3-14.3c0.8,0.8,3,3,5.3,6c-9,9-17.3,17.3-26.3,26.3c0,2.3,0,5.3,0,6
		c8.3,5.3,15.8,10.5,22.5,15.8c2.3,1.5,2.3,5.3,4.5,11.3c-10.5-6.8-18-11.3-24.8-15.8c-9.8,16.5-7.5,34.5-10.5,51.1
		c-3,17.3-6.8,35.3-9.8,52.6c-3,14.3-8.3,28.5-18,39.8c-15.8,18.8-37.5,24.8-60.8,26.3c-8.3,0.8-17.3,0-26.3,0
		c-8.3,0-16.5,0-24.8,0.8c0,15.8,0,29.3,0,42.8c0,1.5,0,3,0,4.5c-0.8,17.3-3.8,20.3-20.3,27.8c-6.8,3-13.5-0.8-18,3
		c-14.3,10.5-27.8-2.3-42.1-1.5c-6,0.8-13.5-6-19.5-8.3c0-8.3,0-14.3,0-21c0-9-0.8-17.3-3.8-26.3c-3-8.3-0.8-18.8-0.8-27.8
		c0-9-0.8-18-1.5-27.8c-0.8-9-3-17.3-4.5-27.8c-4.5,1.5-9,3-13.5,3.8c-24.8,4.5-49.6-1.5-73.6-8.3c-9.8-3-17.3-9.8-26.3-15
		c-3.8,6-8.3,13.5-13.5,21c-2.3-0.8-3.8-1.5-7.5-3c5.3-8.3,9.8-16.5,14.3-24c-2.3-3.8-3.8-7.5-6-12c-6.8-2.3-13.5-5.3-25.5-9.8
		c9.8-3,14.3-4.5,18.8-6c-4.5-17.3-13.5-31.5-13.5-49.6c0-7.5-3-14.3-5.3-21.8c-0.8-2.3-3.8-3.8-7.5-7.5c-5.3,5.3-9.8,9.8-15,15
		C73.6,454.6,70.6,454.6,67.6,454.6z"/>
</g>
<g id="Слой_2">
	<polygon points="225.3,152.7 239.5,152.7 232,164.7 225.3,176.7 218.5,164.7 211.8,152.7 	"/>
	<polygon points="311.6,115.2 316.9,127.9 303.4,126.4 289.1,124.2 298.1,112.9 306.4,102.4 	"/>
	<polygon points="385.2,202.3 376.2,213.5 371,200 366.4,187.2 380,189.5 393.5,191.7 	"/>
	<polygon points="382.2,392.2 370.2,400.5 369.5,386.2 368.7,372.7 381.5,378.7 393.5,384.7 	"/>
	<polygon points="388.2,311.1 375.5,316.4 377,302.9 378.5,288.6 389.7,296.9 401,305.1 	"/>
	<polygon points="217.8,288.6 205,284.1 215.5,275.1 226,266.1 228.3,279.6 231.3,293.1 	"/>
	<polygon points="90.1,446.3 77.3,441.8 87.9,432.8 98.4,423.8 100.6,437.3 103.6,450.8 	"/>
	<polygon points="115.6,537.2 102.1,536.4 109.6,524.4 117.9,513.1 123.9,525.9 129.9,537.9 	"/>
	<polygon points="188.5,423.8 175.7,429 178,414.8 180.2,401.3 190.7,410.3 202,418.5 	"/>
	<polygon points="105.9,326.2 93.1,331.4 95.4,317.2 97.6,303.6 108.1,312.6 119.4,320.9 	"/>
	<polygon points="526.4,348.7 513.6,353.9 515.9,339.7 518.1,326.2 528.6,335.2 539.9,343.4 	"/>
	<polygon points="470.1,221.8 456.6,222.5 462.6,209.8 469.3,197.8 476.8,209.8 484.3,221 	"/>
	<polygon points="416.8,505.6 404.7,499.6 416,492.1 428,484.6 428.8,498.1 429.5,512.4 	"/>
	<polygon points="510.6,460.6 497.9,467.3 498.6,453.1 500.1,439.6 511.4,447.1 522.6,454.6 	"/>
	<path fill="#6ABD46" stroke="#11090F" stroke-width="16" stroke-miterlimit="10" d="M485.8,215.8c-21-5.3-58.6,14.3-55.6,36v0.8
		L423.5,432c-0.8,15,0,29.3,0.8,44.3c0.8,24-2.3,46.6-9,66.1c-3,8.3-9,14.3-17.3,18c-5.3,2.3-12,2.3-17.3,1.5
		c-6-1.5-13.5-3-15.8-3.8l15-241c0.8-12.8,3-33,2.3-52.6c-0.8-30.8-3.8-61.6-3.8-61.6c0-43.6-36-87.1-79.6-87.1s-79.6,36-79.6,79.6
		l22.5,310.1h-14.3c-7.5,0-13.5-1.5-19.5-3.8c-10.5-4.5-16.5-15-17.3-25.5l0,0l-13.5-106.6c-1.5-24-8.3-43.6-28.5-53.3
		c-0.8-0.8-1.5-0.8-2.3-0.8c-17.3-6.8-44.3,2.3-52.6,18.8c-11.3,23.3-15,39.8-6.8,77.3c3.8,18,12,34.5,12.8,53.3
		c2.3,31.5,11.3,59.3,27.8,79.6c15.8,18.8,38.3,30,67.6,30h42.1c3,0,6,0,9-0.8l8.3,112.6c0.8,6,3,12,7.5,15.8
		c25.5,23.3,36.8,24,72.8,17.3c15.8-3,22.5-31.5,23.3-48.8l2.3-31.5h30c69.1,0,101.4-51.8,106.6-118.6c0.8-15,2.3-29.3,4.5-44.3
		l26.3-177.2C527.9,272.8,532.4,227,485.8,215.8z"/>
</g>
<g id="Слой_3" display="none">
	<path display="inline" stroke="#11090F" stroke-width="0.5" stroke-miterlimit="10" d="M277.1,77.6l-7.5,2.3l11.3,36.8
		c3-0.8,5.3-0.8,8.3-1.5L277.1,77.6z"/>
	<path display="inline" stroke="#11090F" stroke-width="0.5" stroke-miterlimit="10" d="M304.9,115.2l9-36l-7.5-2.3l-9.8,37.5
		c0.8,0,1.5,0,2.3,0C300.4,114.4,302.6,115.2,304.9,115.2z"/>
	<path display="inline" stroke="#11090F" stroke-width="0.5" stroke-miterlimit="10" d="M366.4,101.6l-7.5-2.3l-9,36
		c2.3,2.3,4.5,4.5,6.8,6.8L366.4,101.6z"/>
	<path display="inline" stroke="#11090F" stroke-width="0.5" stroke-miterlimit="10" d="M404.7,167.7l-2.3-7.5l-30.8,9
		c0.8,2.3,2.3,5.3,3,7.5L404.7,167.7z"/>
	<path display="inline" stroke="#11090F" stroke-width="0.5" stroke-miterlimit="10" d="M398.7,267.6l-6-6l-11.3,12
		c0,4.5,0,8.3-0.8,12.8L398.7,267.6z"/>
	<path display="inline" stroke="#11090F" stroke-width="0.5" stroke-miterlimit="10" d="M395.7,312.6l5.3-6l-19.5-17.3
		c0,3.8-0.8,6.8-0.8,10.5L395.7,312.6z"/>
	<polygon display="inline" stroke="#11090F" stroke-width="0.5" stroke-miterlimit="10" points="388.2,432.8 393.5,426.8 374,409.5 
		373.2,420 	"/>
	<polygon display="inline" stroke="#11090F" stroke-width="0.5" stroke-miterlimit="10" points="391.2,372.7 385.2,366.7 375.5,378 
		374.7,390.7 	"/>
	<polygon display="inline" stroke="#11090F" stroke-width="0.5" stroke-miterlimit="10" points="222.3,261.6 199.7,286.4 
		205.8,291.6 224.5,271.3 223.8,262.3 	"/>
	<polygon display="inline" stroke="#11090F" stroke-width="0.5" stroke-miterlimit="10" points="223,251.1 203.5,233.8 198.2,239.8 
		222.3,261.6 223.8,260.1 	"/>
	
		<rect x="220.9" y="116" transform="matrix(-0.9034 0.4288 -0.4288 -0.9034 486.5462 162.2188)" display="inline" stroke="#11090F" stroke-width="0.5" stroke-miterlimit="10" width="8.3" height="39.8"/>
	<path display="inline" stroke="#11090F" stroke-width="0.5" stroke-miterlimit="10" d="M229.8,155l-35.3,16.5l3.8,7.5l34.5-16.5
		c0,0,0-0.8,0.8-0.8L229.8,155z"/>
	<path display="inline" stroke="#11090F" stroke-width="0.5" stroke-miterlimit="10" d="M62.3,455.3l5.3,6.8l27.8-22.5
		c-0.8-3-1.5-6-2.3-8.3L62.3,455.3z"/>
	<path display="inline" stroke="#11090F" stroke-width="0.5" stroke-miterlimit="10" d="M130.7,546.2l-16.5,30l6.8,3.8l15.8-27.8
		C134.4,549.9,132.9,548.4,130.7,546.2z"/>
	<polygon display="inline" stroke="#11090F" stroke-width="0.5" stroke-miterlimit="10" points="199.7,368.2 192.2,364.5 
		178.7,388.5 180.2,402 	"/>
	<polygon display="inline" stroke="#11090F" stroke-width="0.5" stroke-miterlimit="10" points="196.7,428.3 200.5,421.5 181.7,411 
		183.2,420.8 	"/>
	<path display="inline" stroke="#11090F" stroke-width="0.5" stroke-miterlimit="10" d="M103.6,295.4l-7.5,2.3l7.5,22.5
		c2.3-1.5,4.5-3,7.5-4.5L103.6,295.4z"/>
	<path display="inline" stroke="#11090F" stroke-width="0.5" stroke-miterlimit="10" d="M135.9,311.1l7.5-20.3l-7.5-3l-8.3,23.3
		C130.7,311.1,133.7,311.1,135.9,311.1z"/>
	<path display="inline" stroke="#11090F" stroke-width="0.5" stroke-miterlimit="10" d="M99.9,517.6l-3,7.5l25.5,11.3
		c-3-3.8-5.3-7.5-7.5-12L99.9,517.6z"/>
	<polygon display="inline" stroke="#11090F" stroke-width="0.5" stroke-miterlimit="10" points="502.4,464.3 536.2,478.6 
		539.2,471.1 503.9,456.1 	"/>
	<polygon display="inline" stroke="#11090F" stroke-width="0.5" stroke-miterlimit="10" points="536.2,419.3 530.1,413.3 506.9,435 
		505.4,447.8 	"/>
	<polygon display="inline" stroke="#11090F" stroke-width="0.5" stroke-miterlimit="10" points="543.7,306.6 537.7,300.6 
		524.9,312.6 523.4,325.4 	"/>
	<polygon display="inline" stroke="#11090F" stroke-width="0.5" stroke-miterlimit="10" points="528.6,351.7 534.7,346.4 
		521.9,332.9 520.4,343.4 	"/>
	<path display="inline" stroke="#11090F" stroke-width="0.5" stroke-miterlimit="10" d="M491.1,217.3l-13.5-33.8l-7.5,3l11.3,28.5
		c1.5,0,3,0,5.3,0.8C488.1,215.8,489.6,216.5,491.1,217.3z"/>
	<path display="inline" stroke="#11090F" stroke-width="0.5" stroke-miterlimit="10" d="M519.6,207.5l-6-5.3l-16.5,17.3
		c3,1.5,5.3,2.3,7.5,3.8L519.6,207.5z"/>
	
		<rect x="418" y="482.5" transform="matrix(0.7339 0.6793 -0.6793 0.7339 449.5543 -154.6266)" display="inline" stroke="#11090F" stroke-width="0.5" stroke-miterlimit="10" width="8.3" height="27.8"/>
	
		<rect x="417.2" y="456.8" transform="matrix(-0.6792 0.7339 -0.7339 -0.6792 1053.0043 481.1123)" display="inline" stroke="#11090F" stroke-width="0.5" stroke-miterlimit="10" width="8.3" height="27.8"/>
	<path display="inline" fill="#6ABD46" stroke="#11090F" stroke-width="0.5" stroke-miterlimit="10" d="M487.3,215.8
		c-21-5.3-58.6,14.3-55.6,36v0.8L425,432c-0.8,15,0,29.3,0.8,44.3c0.8,24-2.3,46.6-9,66.1c-3,8.3-9,14.3-17.3,18
		c-5.3,2.3-12,2.3-17.3,1.5c-6-1.5-13.5-3-15.8-3.8l15-241c0.8-12.8,3-33,2.3-52.6C383,233.8,380,203,380,203
		c0-43.6-36-87.1-79.6-87.1s-79.6,36-79.6,79.6l22.5,310.1H229c-7.5,0-13.5-1.5-19.5-3.8c-10.5-4.5-16.5-15-17.3-25.5l0,0
		l-13.5-106.6c-1.5-24-8.3-43.6-28.5-53.3c-0.8-0.8-1.5-0.8-2.3-0.8c-17.3-6.8-44.3,2.3-52.6,18.8c-11.3,23.3-15,39.8-6.8,77.3
		c3.8,18,12,34.5,12.8,53.3c2.3,31.5,11.3,59.3,27.8,79.6c15.8,18.8,38.3,30,67.6,30h42.1c3,0,6,0,9-0.8l8.3,112.6
		c0.8,6,3,12,7.5,15.8c25.5,23.3,36.8,24,72.8,17.3c15.8-3,22.5-31.5,23.3-48.8l2.3-31.5h30c69.1,0,101.4-51.8,106.6-118.6
		c0.8-15,2.3-29.3,4.5-44.3l26.3-177.2C528.6,272.8,533.9,227,487.3,215.8z"/>
</g>
</svg>
