<?xml version="1.0" encoding="utf-8"?>
<!-- Generator: Adobe Illustrator 17.1.0, SVG Export Plug-In . SVG Version: 6.00 Build 0)  -->
<!DOCTYPE svg PUBLIC "-//W3C//DTD SVG 1.1//EN" "http://www.w3.org/Graphics/SVG/1.1/DTD/svg11.dtd">
<svg version="1.1" id="Layer_1" xmlns="http://www.w3.org/2000/svg" xmlns:xlink="http://www.w3.org/1999/xlink" x="0px" y="0px"
	 viewBox="0 0 23.5 31.7" enable-background="new 0 0 23.5 31.7" xml:space="preserve">
<g id="Слой_2">
	<polygon fill="#010101" points="7.7,2.5 8.4,2.5 8,3.1 7.7,3.7 7.3,3.1 7,2.5 	"/>
	<polygon fill="#010101" points="12,0.6 12.3,1.3 11.6,1.2 10.9,1.1 11.3,0.5 11.8,0 	"/>
	<polygon fill="#010101" points="15.7,5 15.3,5.6 15,4.9 14.8,4.3 15.5,4.4 16.1,4.5 	"/>
	<polygon fill="#010101" points="15.6,14.6 15,15 14.9,14.3 14.9,13.6 15.5,13.9 16.1,14.2 	"/>
	<polygon fill="#010101" points="15.9,10.5 15.2,10.8 15.3,10.1 15.4,9.4 15.9,9.8 16.5,10.2 	"/>
	<polygon fill="#010101" points="7.3,9.4 6.7,9.1 7.2,8.7 7.7,8.2 7.8,8.9 8,9.6 	"/>
	<polygon fill="#010101" points="0.9,17.3 0.2,17.1 0.8,16.6 1.3,16.2 1.4,16.8 1.6,17.5 	"/>
	<polygon fill="#010101" points="2.2,21.9 1.5,21.8 1.9,21.2 2.3,20.7 2.6,21.3 2.9,21.9 	"/>
	<polygon fill="#010101" points="5.8,16.2 5.2,16.4 5.3,15.7 5.4,15 5.9,15.5 6.5,15.9 	"/>
	<polygon fill="#010101" points="1.7,11.3 1,11.5 1.1,10.8 1.3,10.1 1.8,10.6 2.3,11 	"/>
	<polygon fill="#010101" points="22.8,12.4 22.2,12.7 22.3,11.9 22.4,11.3 22.9,11.7 23.5,12.1 	"/>
	<polygon fill="#010101" points="20,6 19.3,6 19.6,5.4 20,4.8 20.3,5.4 20.7,6 	"/>
	<polygon fill="#010101" points="17.3,20.3 16.7,20 17.3,19.6 17.9,19.2 17.9,19.9 18,20.6 	"/>
	<polygon fill="#010101" points="22,18 21.4,18.4 21.4,17.6 21.5,17 22.1,17.3 22.6,17.7 	"/>
	<path fill="#6CBE47" stroke="#140E12" stroke-miterlimit="10" d="M20.8,5.7c-1.1-0.3-2.9,0.7-2.8,1.8v0l-0.3,9c0,0.8,0,1.5,0,2.2
		c0,1.2-0.1,2.3-0.5,3.3c-0.2,0.4-0.5,0.7-0.9,0.9c-0.3,0.1-0.6,0.1-0.9,0.1c-0.3-0.1-0.7-0.2-0.8-0.2l0.8-12.1
		c0-0.6,0.2-1.7,0.1-2.6c0-1.5-0.2-3.1-0.2-3.1c0-2.2-1.8-4.4-4-4.4s-4,1.8-4,4l1.1,15.6H7.8c-0.4,0-0.7-0.1-1-0.2
		c-0.5-0.2-0.8-0.8-0.9-1.3l0,0l-0.7-5.4c-0.1-1.2-0.4-2.2-1.4-2.7c0,0-0.1,0-0.1,0c-0.9-0.3-2.2,0.1-2.6,0.9
		c-0.6,1.2-0.8,2-0.3,3.9c0.2,0.9,0.6,1.7,0.6,2.7c0.1,1.6,0.6,3,1.4,4c0.8,0.9,1.9,1.5,3.4,1.5h2.1c0.2,0,0.3,0,0.5,0l0.4,5.7
		c0,0.3,0.2,0.6,0.4,0.8c1.3,1.2,1.9,1.2,3.7,0.9c0.8-0.2,1.1-1.6,1.2-2.5l0.1-1.6H16c3.5,0,5.1-2.6,5.4-6c0-0.8,0.1-1.5,0.2-2.2
		l1.3-8.9C22.9,8.6,23.1,6.3,20.8,5.7z"/>
</g>
</svg>
